<svg width="20" height="21" viewBox="0 0 20 21" fill="none" xmlns="http://www.w3.org/2000/svg">
<path fill-rule="evenodd" clip-rule="evenodd" d="M10 18.5C14.4183 18.5 18 14.9183 18 10.5C18 6.08172 14.4183 2.5 10 2.5C5.58172 2.5 2 6.08172 2 10.5C2 14.9183 5.58172 18.5 10 18.5ZM13.7071 9.20711C14.0976 8.81658 14.0976 8.18342 13.7071 7.79289C13.3166 7.40237 12.6834 7.40237 12.2929 7.79289L9 11.0858L7.70711 9.79289C7.31658 9.40237 6.68342 9.40237 6.29289 9.79289C5.90237 10.1834 5.90237 10.8166 6.29289 11.2071L8.29289 13.2071C8.68342 13.5976 9.31658 13.5976 9.70711 13.2071L13.7071 9.20711Z" fill="#007AFF"/>
</svg>
