<svg width="32" height="32" viewBox="0 0 32 32" fill="none" xmlns="http://www.w3.org/2000/svg">
<path fill-rule="evenodd" clip-rule="evenodd" d="M16.0002 28.7999C23.0694 28.7999 28.8002 23.0692 28.8002 16C28.8002 8.93071 23.0694 3.19995 16.0002 3.19995C8.93095 3.19995 3.2002 8.93071 3.2002 16C3.2002 23.0692 8.93095 28.7999 16.0002 28.7999ZM21.9316 13.9313C22.5564 13.3065 22.5564 12.2934 21.9316 11.6686C21.3067 11.0437 20.2937 11.0437 19.6688 11.6686L14.4002 16.9372L12.3316 14.8686C11.7067 14.2437 10.6937 14.2437 10.0688 14.8686C9.44399 15.4934 9.44399 16.5065 10.0688 17.1313L13.2688 20.3313C13.8937 20.9562 14.9067 20.9562 15.5316 20.3313L21.9316 13.9313Z" fill="#007AFF"/>
</svg>
