<svg width="214" height="54" viewBox="0 0 214 54" fill="none" xmlns="http://www.w3.org/2000/svg">
    <g clip-path="url(#clip0_102_3480)">
    <path d="M64.2788 37.5569H79.3841V33.0071H69.6476V15.8696H64.2788V37.5569Z" fill="#838383"/>
    <path d="M88.3334 34.5239C86.1798 34.5239 85.0575 32.6433 85.0575 29.8224C85.0575 27.0016 86.1798 25.0907 88.3334 25.0907C90.4869 25.0907 91.6395 27.0016 91.6395 29.8224C91.6395 32.6433 90.4869 34.5239 88.3334 34.5239ZM88.3637 38.0424C93.3685 38.0424 96.6443 34.4936 96.6443 29.8224C96.6443 25.1513 93.3685 21.6025 88.3637 21.6025C83.3892 21.6025 80.0527 25.1513 80.0527 29.8224C80.0527 34.4936 83.3892 38.0424 88.3637 38.0424Z" fill="#838383"/>
    <path d="M105.307 42.9256C107.613 42.9256 109.645 42.4099 111.01 41.1966C112.253 40.0743 113.072 38.3758 113.072 36.0402V22.0268H108.34V23.6951H108.28C107.37 22.3908 105.975 21.5718 103.912 21.5718C100.06 21.5718 97.3906 24.787 97.3906 29.3368C97.3906 34.0989 100.636 36.7075 104.124 36.7075C106.005 36.7075 107.188 35.9492 108.098 34.9179H108.219V36.4648C108.219 38.3454 107.34 39.4374 105.247 39.4374C103.609 39.4374 102.79 38.7397 102.517 37.9208H97.7243C98.2096 41.1663 101.03 42.9256 105.307 42.9256ZM105.277 33.0373C103.427 33.0373 102.213 31.5207 102.213 29.1852C102.213 26.8193 103.427 25.3027 105.277 25.3027C107.34 25.3027 108.431 27.0619 108.431 29.1548C108.431 31.3387 107.431 33.0373 105.277 33.0373Z" fill="#838383"/>
    <path d="M122.802 34.5239C120.648 34.5239 119.526 32.6433 119.526 29.8224C119.526 27.0016 120.648 25.0907 122.802 25.0907C124.955 25.0907 126.108 27.0016 126.108 29.8224C126.108 32.6433 124.955 34.5239 122.802 34.5239ZM122.832 38.0424C127.837 38.0424 131.113 34.4936 131.113 29.8224C131.113 25.1513 127.837 21.6025 122.832 21.6025C117.858 21.6025 114.521 25.1513 114.521 29.8224C114.521 34.4936 117.858 38.0424 122.832 38.0424Z" fill="#838383"/>
    <path d="M132.556 37.5569H137.5V22.027H132.556V37.5569ZM132.556 19.8734H137.5V15.8696H132.556V19.8734Z" fill="#838383"/>
    <path d="M139.646 42.6829H144.59V35.9492H144.651C145.621 37.2535 147.047 38.0421 149.049 38.0421C153.113 38.0421 155.813 34.8269 155.813 29.7918C155.813 25.1207 153.295 21.5718 149.17 21.5718C147.047 21.5718 145.53 22.5121 144.469 23.9074H144.378V22.0268H139.646V42.6829ZM147.775 34.2203C145.652 34.2203 144.438 32.4914 144.438 29.9738C144.438 27.4562 145.53 25.5453 147.684 25.5453C149.807 25.5453 150.808 27.3046 150.808 29.9738C150.808 32.6127 149.656 34.2203 147.775 34.2203Z" fill="#838383"/>
    <path d="M163.862 38.0421C167.927 38.0421 170.93 36.2828 170.93 32.8857C170.93 28.9122 167.714 28.2145 164.985 27.7596C163.013 27.3956 161.254 27.2439 161.254 26.152C161.254 25.1813 162.194 24.7264 163.407 24.7264C164.772 24.7264 165.712 25.151 165.894 26.5463H170.444C170.202 23.4828 167.836 21.5718 163.438 21.5718C159.767 21.5718 156.734 23.2704 156.734 26.5463C156.734 30.1861 159.616 30.9141 162.315 31.3691C164.378 31.733 166.258 31.8847 166.258 33.28C166.258 34.2809 165.318 34.8269 163.832 34.8269C162.194 34.8269 161.163 34.0686 160.981 32.5217H156.31C156.461 35.9492 159.312 38.0421 163.862 38.0421Z" fill="#838383"/>
    <path d="M177.646 38.012C179.799 38.012 181.164 37.1627 182.287 35.6461H182.378V37.557H187.109V22.027H182.165V30.702C182.165 32.5522 181.134 33.8262 179.435 33.8262C177.858 33.8262 177.1 32.8859 177.1 31.1873V22.027H172.186V32.2186C172.186 35.6764 174.067 38.012 177.646 38.012Z" fill="#838383"/>
    <path d="M189.259 37.5568H194.203V28.8515C194.203 27.0013 195.113 25.697 196.66 25.697C198.146 25.697 198.844 26.6676 198.844 28.3359V37.5568H203.788V28.8515C203.788 27.0013 204.667 25.697 206.245 25.697C207.731 25.697 208.429 26.6676 208.429 28.3359V37.5568H213.373V27.4562C213.373 23.9681 211.613 21.5718 208.095 21.5718C206.093 21.5718 204.425 22.4211 203.211 24.3017H203.151C202.362 22.6335 200.815 21.5718 198.783 21.5718C196.538 21.5718 195.052 22.6335 194.082 24.2411H193.991V22.0268H189.259V37.5568Z" fill="#838383"/>
    <path fill-rule="evenodd" clip-rule="evenodd" d="M26.1414 1.67535C40.3744 1.67535 51.9126 13.2135 51.9126 27.4465C51.9126 41.6797 40.3744 53.2178 26.1414 53.2178C11.9083 53.2178 0.370117 41.6797 0.370117 27.4465C0.370117 13.2135 11.9083 1.67535 26.1414 1.67535ZM50.9234 27.4465C50.9234 13.7598 39.828 2.66446 26.1414 2.66446C25.0373 2.66446 23.9503 2.73665 22.8843 2.87656C23.573 2.81636 24.2699 2.78562 24.9741 2.78562C38.0525 2.78562 48.6546 13.3878 48.6546 26.4661C48.6546 39.5444 38.0525 50.1466 24.9741 50.1466C12.5924 50.1466 2.43016 40.6439 1.38265 28.5338C1.95169 41.7161 12.8188 52.2286 26.1414 52.2286C39.828 52.2286 50.9234 41.1333 50.9234 27.4465ZM47.6654 26.4661C47.6654 13.934 37.5063 3.77473 24.9741 3.77473C23.9566 3.77473 22.9546 3.84172 21.9725 3.9715C22.5772 3.92062 23.1891 3.89466 23.8069 3.89466C35.7307 3.89466 45.3967 13.5608 45.3967 25.4844C45.3967 37.4082 35.7307 47.0742 23.8069 47.0742C12.5328 47.0742 3.27696 38.4325 2.30208 27.4116C2.79774 39.5052 12.7588 49.1575 24.9741 49.1575C37.5063 49.1575 47.6654 38.9982 47.6654 26.4661ZM23.8069 4.88377C35.1843 4.88377 44.4077 14.107 44.4077 25.4844C44.4077 36.8618 35.1843 46.085 23.8069 46.085C12.6932 46.085 3.63481 37.2842 3.2211 26.2715C4.11431 36.2116 12.4673 44.0017 22.6399 44.0017C33.4082 44.0017 42.1377 35.2723 42.1377 24.5039C42.1377 13.7356 33.4082 5.00616 22.6399 5.00616C22.0828 5.00616 21.5312 5.02953 20.9859 5.07532C21.9083 4.94902 22.85 4.88377 23.8069 4.88377ZM41.1485 24.5039C41.1485 14.2819 32.8619 5.99527 22.6399 5.99527C21.7762 5.99527 20.9263 6.05442 20.0942 6.1689C20.5485 6.13333 21.0078 6.11522 21.4714 6.11522C31.0851 6.11522 38.8785 13.9086 38.8785 23.5223C38.8785 33.1359 31.0851 40.9293 21.4714 40.9293C12.4228 40.9293 4.98679 34.0251 4.14392 25.1974C4.50858 35.0981 12.65 43.0126 22.6399 43.0126C32.8619 43.0126 41.1485 34.726 41.1485 24.5039ZM21.4714 7.10432C30.5387 7.10432 37.8893 14.4549 37.8893 23.5223C37.8893 32.5897 30.5387 39.9402 21.4714 39.9402C12.5826 39.9402 5.34374 32.8764 5.06199 24.0561C5.82298 31.8037 12.3567 37.8569 20.3042 37.8569C28.7633 37.8569 35.6206 30.9995 35.6206 22.5406C35.6206 14.0816 28.7633 7.22425 20.3042 7.22425C19.9164 7.22425 19.5318 7.23867 19.1511 7.267C19.9092 7.15978 20.6838 7.10432 21.4714 7.10432ZM34.6315 22.5406C34.6315 14.6278 28.217 8.21336 20.3042 8.21336C19.582 8.21336 18.8722 8.26681 18.1786 8.36996C18.4952 8.34729 18.8148 8.33575 19.1372 8.33575C26.4408 8.33575 32.3616 14.2565 32.3616 21.5601C32.3616 28.8638 26.4408 34.7844 19.1372 34.7844C12.2933 34.7844 6.66365 29.5857 5.98203 22.9217C6.1841 30.6583 12.519 36.8679 20.3042 36.8679C28.217 36.8679 34.6315 30.4533 34.6315 22.5406ZM19.1372 9.32487C25.8945 9.32487 31.3724 14.8027 31.3724 21.5601C31.3724 28.3175 25.8945 33.7954 19.1372 33.7954C12.4658 33.7954 7.04153 28.456 6.90454 21.8175C7.52082 27.3833 12.2399 31.7121 17.9701 31.7121C24.119 31.7121 29.1037 26.7274 29.1037 20.5785C29.1037 14.4295 24.119 9.44479 17.9701 9.44479C17.7349 9.44479 17.5014 9.45208 17.2699 9.46645C17.8787 9.37322 18.5023 9.32487 19.1372 9.32487ZM28.1146 20.5785C28.1146 14.9758 23.5728 10.4339 17.9701 10.4339C17.4074 10.4339 16.8555 10.4797 16.3177 10.5678C16.478 10.5593 16.6392 10.5551 16.8016 10.5551C21.7958 10.5551 25.8445 14.6037 25.8445 19.598C25.8445 24.5923 21.7958 28.6409 16.8016 28.6409C12.1836 28.6409 8.37416 25.1793 7.82631 20.7094C7.89646 26.2518 12.4111 30.723 17.9701 30.723C23.5728 30.723 28.1146 26.1812 28.1146 20.5785ZM16.8016 11.5442C21.2496 11.5442 24.8554 15.1499 24.8554 19.598C24.8554 24.046 21.2496 27.6517 16.8016 27.6517C12.3536 27.6517 8.74779 24.046 8.74779 19.598C8.74779 19.5874 8.74781 19.5766 8.74785 19.566C9.21094 22.9556 12.1177 25.5673 15.6345 25.5673C19.4734 25.5673 22.5854 22.4552 22.5854 18.6164C22.5854 14.7773 19.4734 11.6654 15.6345 11.6654C15.5477 11.6654 15.4612 11.6669 15.3752 11.6701C15.8381 11.5874 16.3148 11.5442 16.8016 11.5442ZM21.5962 18.6164C21.5962 15.3237 18.9272 12.6545 15.6345 12.6545C12.3418 12.6545 9.67262 15.3237 9.67262 18.6164C9.67262 21.9089 12.3418 24.5781 15.6345 24.5781C18.9272 24.5781 21.5962 21.9089 21.5962 18.6164Z" fill="#838383"/>
    </g>
    <defs>
    <clipPath id="clip0_102_3480">
    <rect width="213.588" height="53.081" fill="white" transform="translate(0 0.459534)"/>
    </clipPath>
    </defs>
    </svg>
    