<svg width="61" height="40" viewBox="0 0 61 40" fill="none" xmlns="http://www.w3.org/2000/svg">
    <g clip-path="url(#clip0_102_3491)">
    <path d="M56.8379 1.25C56.8379 1.94036 57.3975 2.5 58.0879 2.5H59.3379C60.0283 2.5 60.5879 1.94036 60.5879 1.25C60.5879 0.559645 60.0283 0 59.3379 0H58.0879C57.3975 0 56.8379 0.559645 56.8379 1.25Z" fill="#212326"/>
    <path d="M20.5879 40H26.6602L24.8924 38.2322C24.4236 37.7634 23.7877 37.5 23.1247 37.5H20.5879C10.9229 37.5 3.08789 29.665 3.08789 20C3.08789 10.335 10.9229 2.50001 20.5879 2.5H40.5879C50.2529 2.5 58.0879 10.335 58.0879 20C58.0879 29.665 50.2529 37.5 40.5879 37.5H33.1063C32.1117 37.5 31.1579 37.1049 30.4546 36.4017L28.3836 34.3306C27.2115 33.1585 25.6217 32.5 23.9641 32.5H20.5879C13.6843 32.5 8.08789 26.9036 8.08789 20C8.08789 13.0964 13.6843 7.5 20.5879 7.5H40.5879C47.4915 7.5 53.0879 13.0964 53.0879 20C53.0879 26.9036 47.4915 32.5 40.5879 32.5H35.784C34.7894 32.5 33.8356 32.1049 33.1323 31.4017L31.0612 29.3306C29.8891 28.1585 28.2994 27.5 26.6418 27.5H20.5879C16.4458 27.5 13.0879 24.1421 13.0879 20C13.0879 15.8579 16.4458 12.5 20.5879 12.5H40.5879C44.73 12.5 48.0879 15.8579 48.0879 20C48.0879 24.0916 44.8114 27.418 40.7391 27.4985L40.7383 27.5H38.909C37.9144 27.5 36.9606 27.1049 36.2573 26.4017L34.1862 24.3306C33.2245 23.3688 31.9816 22.7529 30.6507 22.5628L30.5879 22.5H20.5879C19.2072 22.5 18.0879 21.3807 18.0879 20C18.0879 18.6193 19.2072 17.5 20.5879 17.5H40.5879C41.9686 17.5 43.0879 18.6193 43.0879 20C43.0879 21.3807 41.9686 22.5 40.5879 22.5H35.5879L37.3557 24.2678C37.8245 24.7366 38.4604 25 39.1234 25H40.5879C43.3493 25 45.5879 22.7614 45.5879 20C45.5879 17.2386 43.3493 15 40.5879 15H20.5879C17.8265 15 15.5879 17.2386 15.5879 20C15.5879 22.7614 17.8265 25 20.5879 25H29.7668C30.7614 25 31.7152 25.3951 32.4185 26.0983L34.4896 28.1694C35.6617 29.3415 37.2514 30 38.909 30H41.2129V29.9808C46.4446 29.6582 50.5879 25.3129 50.5879 20C50.5879 14.4772 46.1107 10 40.5879 10H20.5879C15.0651 10 10.5879 14.4772 10.5879 20C10.5879 25.5229 15.0651 30 20.5879 30H26.6418C27.6364 30 28.5902 30.3951 29.2935 31.0983L31.3646 33.1694C32.5367 34.3415 34.1264 35 35.784 35H40.5879C48.8722 35 55.5879 28.2843 55.5879 20C55.5879 11.7157 48.8722 5 40.5879 5H20.5879C12.3036 5 5.58789 11.7157 5.58789 20C5.58789 28.2843 12.3036 35 20.5879 35H23.9641C24.9587 35 25.9125 35.3951 26.6158 36.0983L28.6869 38.1694C29.859 39.3415 31.4487 40 33.1063 40H40.5879C51.6336 40 60.5879 31.0457 60.5879 20C60.5879 8.9543 51.6336 -9.65645e-07 40.5879 0L20.5879 4.13264e-06C9.54219 5.09829e-06 0.58789 8.95431 0.587891 20C0.587892 31.0457 9.5422 40 20.5879 40Z" fill="#212326"/>
    </g>
    <defs>
    <clipPath id="clip0_102_3491">
    <rect width="60" height="40" fill="white" transform="translate(0.587891)"/>
    </clipPath>
    </defs>
    </svg>
    