<svg width="81" height="80" viewBox="0 0 81 80" fill="none" xmlns="http://www.w3.org/2000/svg">
    <path d="M32.8921 9.59985C24.4281 7.15185 12.5401 1.98385 8.28407 10.5438C3.62807 19.9518 11.8681 28.7998 17.2441 35.7598C20.9401 41.0398 19.6281 45.5518 14.7321 50.7038C3.78807 62.1758 8.71607 77.5358 24.8281 77.7918C31.8521 77.7918 38.3641 74.4638 44.5561 71.1358C56.4281 64.7358 63.7561 69.4558 71.4841 63.9038C76.6681 60.2078 73.0041 50.7678 70.8601 45.0878C69.0313 40.3379 68.9126 35.0998 70.5241 30.2718C72.1241 24.1598 73.1481 14.2718 66.3961 11.2158C63.3241 10.0638 59.7881 11.3918 56.5881 10.3518C52.6201 9.02385 50.6361 4.33585 46.7481 2.78385C39.1801 -0.256155 38.9881 11.1998 32.8921 9.59985Z" stroke="black" stroke-width="0.8" stroke-miterlimit="10"/>
    <path d="M47.292 4.62385C50.988 6.06385 52.908 10.4638 56.684 11.7278C59.644 12.7198 63.084 11.4238 65.932 12.6079C72.332 15.2958 71.74 24.9278 70.012 30.6718C68.6262 35.3002 68.7552 40.2501 70.38 44.7998C72.38 50.2398 75.74 59.1998 70.812 62.7518C63.42 68.0958 56.412 63.7918 45.212 69.7598C39.34 72.8638 33.148 76.0158 26.524 75.9038C11.324 75.6798 6.63601 61.1198 16.748 50.3038C21.292 45.4238 22.62 41.0718 19.068 36.1278C14.268 29.3918 6.39601 21.1038 10.828 12.2239C14.828 4.04785 26.028 8.79985 34.044 10.9759C39.804 12.5439 40.076 1.77585 47.292 4.62385Z" stroke="black" stroke-width="0.784" stroke-miterlimit="10"/>
    <path d="M47.7558 6.39991C51.2598 7.75991 53.1478 11.8399 56.7158 13.0399C59.5158 13.9839 62.7318 12.7999 65.4678 13.9359C71.5958 16.5758 70.9878 25.5998 69.4998 31.0718C68.2601 35.461 68.3998 40.125 69.8998 44.4318C71.7558 49.6478 74.8278 58.1118 70.1558 61.5358C63.1638 66.6558 56.4918 62.7838 45.7878 68.3038C40.2358 71.1998 34.3958 74.0958 28.1878 73.9518C13.8678 73.5998 9.38784 59.9998 18.7158 49.7438C22.9078 45.1358 24.1238 41.0078 20.8118 36.3518C16.2838 29.9518 9.09984 22.1118 13.2918 13.7439C17.1318 6.11191 27.6918 10.4319 35.2118 12.3999C40.5878 13.8399 40.9718 3.83991 47.7558 6.39991Z" stroke="black" stroke-width="0.752" stroke-miterlimit="10"/>
    <path d="M48.2197 8.30394C51.5477 9.59994 53.3877 13.3439 56.7477 14.4799C59.3877 15.3599 62.4277 14.3039 65.0037 15.3919C70.7637 17.856 70.3797 26.304 68.9877 31.488C67.8856 35.6394 68.0247 40.0227 69.3877 44.096C71.1317 49.088 73.8837 57.072 69.4837 60.352C62.8917 65.264 56.5237 61.792 46.3957 66.896C41.1477 69.552 35.6597 72.208 29.7877 72.032C16.4277 71.664 12.1877 58.912 20.6997 49.248C24.5397 44.928 25.6277 41.04 22.5877 36.64C18.4117 30.576 11.7877 23.184 15.8037 15.3279C19.4197 8.17594 29.2437 12.1279 36.3797 13.8399C41.4677 15.1199 41.8517 5.90394 48.2197 8.30394Z" stroke="black" stroke-width="0.736" stroke-miterlimit="10"/>
    <path d="M48.6838 10.144C51.8838 11.296 53.5958 14.784 56.7798 15.84C59.2758 16.688 62.1078 15.76 64.5238 16.784C69.9478 19.12 69.6918 26.992 68.4758 31.888C67.5178 35.8153 67.673 39.9318 68.9238 43.776C70.5238 48.576 72.9878 56.016 68.8438 59.168C62.6358 63.856 56.5718 60.768 47.0358 65.568C42.1078 68 36.9398 70.368 31.4518 70.192C19.0198 69.68 14.9877 57.84 22.6998 48.768C26.1878 44.72 27.1798 41.072 24.3958 36.928C20.5398 31.2 14.5877 24.256 18.3158 16.928C21.7238 10.24 30.8598 13.728 37.5158 15.328C42.2998 16.4 42.7478 7.99999 48.6838 10.144Z" stroke="black" stroke-width="0.72" stroke-miterlimit="10"/>
    <path d="M49.164 11.9839C52.124 13.0399 53.82 16.208 56.812 17.216C59.148 18.016 61.804 17.216 64.06 18.192C69.132 20.4 69.02 27.68 67.964 32.288C67.1363 35.9986 67.3019 39.8618 68.444 43.488C69.9 48.016 72.06 55.008 68.172 58.032C62.38 62.4 56.588 59.792 47.66 64C43.036 66.208 38.22 68.368 33.116 68.144C21.596 67.616 17.708 56.672 24.7 48.224C27.9 44.448 28.7 41.04 26.188 37.168C22.668 31.76 17.324 25.264 20.828 18.464C24.028 12.2239 32.46 15.2639 38.7 16.64C43.132 17.696 43.644 9.99991 49.164 11.9839Z" stroke="black" stroke-width="0.688" stroke-miterlimit="10"/>
    <path d="M49.6279 13.824C52.3959 14.784 54.0599 17.648 56.8439 18.624C59.0359 19.36 61.4999 18.624 63.5959 19.616C68.2999 21.712 68.3959 28.416 67.4519 32.72C66.7646 36.2027 66.9404 39.8008 67.9639 43.2C69.2759 47.488 71.1639 54 67.5159 56.88C62.1239 61.136 56.6359 58.88 48.3159 62.736C44.0119 64.72 39.5319 66.608 34.8119 66.368C24.2199 65.76 20.5239 55.728 26.8119 47.888C29.5799 44.368 30.3479 41.216 28.0759 37.6C24.8759 32.544 20.1879 26.48 23.4359 20.192C26.4279 14.432 34.1879 16.992 39.9799 18.224C43.9639 18.976 44.5399 12.064 49.6279 13.824Z" stroke="black" stroke-width="0.672" stroke-miterlimit="10"/>
    <path d="M50.092 15.6639C52.684 16.5278 54.284 19.0878 56.876 19.9678C58.908 20.6558 61.18 20.0798 63.132 20.9758C67.484 22.9598 67.66 29.0718 66.94 33.0878C66.4 36.3203 66.5859 39.6322 67.484 42.7838C68.652 46.8638 70.22 52.8638 66.86 55.5838C61.868 59.6158 56.684 57.7758 48.892 61.2158C44.892 62.9758 40.764 64.6238 36.428 64.3358C26.828 63.6798 23.26 54.5278 28.684 47.2958C31.116 44.0958 31.756 41.1198 29.756 37.7758C26.924 33.0558 22.812 27.4398 25.836 21.6798C28.62 16.3838 35.676 18.4798 41.036 19.5358C44.796 20.2718 45.388 14.1119 50.092 15.6639Z" stroke="black" stroke-width="0.64" stroke-miterlimit="10"/>
    <path d="M50.5721 17.5041C52.9721 18.2721 54.5081 20.5281 56.9721 21.3441C58.8601 21.9841 60.9401 21.5201 62.7321 22.3681C66.7321 24.2241 67.0361 29.7601 66.4921 33.5681C66.0849 36.5633 66.2807 39.6097 67.0681 42.5281C68.0921 46.3681 69.3721 51.8881 66.2681 54.4961C61.6761 58.3201 56.7801 56.8801 49.5801 59.8881C45.8841 61.4881 42.0921 62.8321 38.1401 62.5121C29.3881 61.7921 26.0921 53.5361 30.7481 46.8961C32.8121 43.9361 33.3561 41.2481 31.6121 38.1761C29.1321 33.7761 25.6121 28.5761 28.4121 23.3761C30.9721 18.5761 37.3561 20.2881 42.2521 21.0721C45.6281 21.5521 46.3161 16.1601 50.5721 17.5041Z" stroke="black" stroke-width="0.624" stroke-miterlimit="10"/>
    <path d="M51.036 19.3442C53.26 20.0162 54.732 21.9682 56.94 22.7042C58.668 23.2962 60.556 22.9762 62.188 23.7602C65.836 25.5042 66.284 30.4482 65.916 33.9042C65.6439 36.6592 65.844 39.4405 66.508 42.1282C67.404 45.7442 68.396 50.7842 65.548 53.3282C61.388 56.8642 56.748 55.8402 50.188 58.4162C46.9413 59.9282 43.3834 60.6519 39.804 60.5282C31.964 59.7282 28.876 52.3842 32.732 46.3522C33.6218 45.2343 34.1605 43.8778 34.28 42.4539C34.3997 41.0303 34.0947 39.6029 33.404 38.3522C31.26 34.2882 28.364 29.5842 30.908 24.8482C33.276 20.4962 38.908 21.8082 43.42 22.3842C46.444 22.8482 47.212 18.2082 51.036 19.3442Z" stroke="black" stroke-width="0.608" stroke-miterlimit="10"/>
    <path d="M51.5001 21.1838C53.5481 21.7438 54.9721 23.3918 56.9721 24.0798C58.5721 24.6238 60.1721 24.4158 61.7721 25.1518C65.0681 26.7518 65.6441 31.1358 65.4521 34.3038C65.3209 36.8219 65.5308 39.3461 66.0761 41.8078C66.8281 45.1838 67.5161 49.7278 64.9241 52.0638C61.1481 55.4558 56.9241 54.8478 50.7961 57.0078C47.8427 58.2608 44.638 58.8086 41.4361 58.6078C34.5241 57.7438 31.6281 51.3118 34.7161 45.8078C35.4233 44.759 35.8388 43.541 35.9204 42.2787C36.002 41.0163 35.7465 39.755 35.1801 38.6238C33.3721 34.8958 31.0841 30.6238 33.4041 26.4318C35.5641 22.5438 40.5561 23.4238 44.6041 23.8078C47.2761 24.1278 48.1081 20.2558 51.5001 21.1838Z" stroke="black" stroke-width="0.576" stroke-miterlimit="10"/>
    <path d="M51.9638 23.024C53.8358 23.488 55.1638 24.832 57.0038 25.456C58.4472 25.7147 59.8696 26.0782 61.2598 26.544C64.1878 28.048 64.9078 31.824 64.8918 34.704C64.8937 36.9758 65.1134 39.2422 65.5478 41.472C66.1558 44.672 66.5558 48.688 64.2198 50.864C60.8438 54.064 56.8278 53.856 51.4198 55.664C48.7683 56.667 45.9213 57.0448 43.0998 56.768C41.8229 56.6659 40.5904 56.2525 39.5102 55.5638C38.4299 54.8752 37.535 53.9323 36.9035 52.8178C36.272 51.7032 35.9232 50.4507 35.8877 49.1702C35.8523 47.8896 36.131 46.6198 36.6998 45.472C37.2275 44.4949 37.5235 43.4096 37.5651 42.3C37.6067 41.1904 37.3928 40.0859 36.9398 39.072C35.4838 35.664 33.7398 31.856 35.8998 28.176C37.8358 24.752 42.1398 25.2 45.7078 25.376C48.1078 25.424 49.0038 22.288 51.9638 23.024Z" stroke="black" stroke-width="0.56" stroke-miterlimit="10"/>
    <path d="M52.444 24.864C54.0157 25.4198 55.5496 26.0773 57.036 26.832C58.3189 27.0906 59.577 27.46 60.796 27.936C63.372 29.328 64.22 32.512 64.38 35.104C64.492 37.056 64.764 39.184 65.068 41.152C65.532 44.08 65.628 47.632 63.564 49.68C60.588 52.656 56.876 52.88 51.98 54.176C49.636 54.9267 47.1508 55.1293 44.716 54.768C43.6172 54.6234 42.5642 54.2355 41.634 53.6326C40.7039 53.0298 39.9197 52.227 39.3389 51.2829C38.7581 50.3389 38.3951 49.2771 38.2762 48.175C38.1573 47.073 38.2858 45.9582 38.652 44.912C39.3482 43.0992 39.3482 41.093 38.652 39.28C37.548 36.208 36.476 32.88 38.332 29.68C40.188 26.48 43.66 26.672 46.796 26.736C48.94 26.768 49.9 24.32 52.444 24.864Z" stroke="black" stroke-width="0.544" stroke-miterlimit="10"/>
    <path d="M52.9078 26.7038C54.335 27.0853 55.7267 27.5885 57.0678 28.2078C58.1691 28.4741 59.2409 28.8493 60.2678 29.3278C61.2793 30.0334 62.1212 30.9549 62.7328 32.0259C63.3443 33.0968 63.7102 34.2902 63.8038 35.5198C64.0438 37.1998 64.3158 39.0558 64.5238 40.8158C64.8278 43.5198 64.6358 46.5758 62.9238 48.4958C60.3158 51.1998 56.9078 51.8878 52.6038 52.7998C50.5556 53.2898 48.424 53.317 46.3638 52.8798C44.4798 52.515 42.8161 51.4211 41.7345 49.8361C40.6528 48.2512 40.2408 46.3032 40.5878 44.4158C40.9169 42.8259 40.8622 41.1803 40.4278 39.6158C39.6758 36.8638 39.1958 33.9678 40.8118 31.3278C42.4278 28.6878 45.3878 28.4158 48.0118 28.1598C49.7558 27.9998 50.8118 26.3518 52.9078 26.7038Z" stroke="black" stroke-width="0.512" stroke-miterlimit="10"/>
    <path d="M53.3881 28.5442C54.6665 28.7382 55.9178 29.0819 57.1161 29.5682C58.0433 29.861 58.9385 30.2469 59.7881 30.7202C61.5705 31.9491 62.8223 33.8067 63.2921 35.9202C63.6772 37.4149 63.9289 38.941 64.0441 40.4802C64.3305 42.9142 63.6593 45.3642 62.1721 47.3122C59.8036 49.7704 56.5751 51.2155 53.1641 51.3442C51.4214 51.5955 49.6446 51.4533 47.9641 50.9282C46.4545 50.4624 45.1266 49.5397 44.1638 48.2874C43.2009 47.035 42.6503 45.5147 42.5881 43.9362C42.5551 42.5749 42.4321 41.2173 42.2201 39.8722C41.674 37.4862 42.0694 34.9818 43.3241 32.8802C44.0183 31.971 44.8894 31.2118 45.8847 30.6482C46.8801 30.0845 47.9793 29.728 49.1161 29.6002C50.5881 29.3122 51.7881 28.3842 53.3881 28.5442Z" stroke="black" stroke-width="0.496" stroke-miterlimit="10"/>
    <path d="M53.8517 49.936C59.2509 49.936 63.6277 45.5592 63.6277 40.16C63.6277 34.7608 59.2509 30.384 53.8517 30.384C48.4525 30.384 44.0757 34.7608 44.0757 40.16C44.0757 45.5592 48.4525 49.936 53.8517 49.936Z" stroke="black" stroke-width="0.464" stroke-miterlimit="10"/>
    </svg>
    