<svg width="215" height="54" viewBox="0 0 215 54" fill="none" xmlns="http://www.w3.org/2000/svg">
    <g clip-path="url(#clip0_102_3511)">
    <path d="M62.7847 37.6072H78.0709V33.003H68.2177V15.6602H62.7847V37.6072Z" fill="#838383"/>
    <path d="M87.1276 34.5379C84.9482 34.5379 83.8125 32.6348 83.8125 29.7801C83.8125 26.9255 84.9482 24.9917 87.1276 24.9917C89.307 24.9917 90.4734 26.9255 90.4734 29.7801C90.4734 32.6348 89.307 34.5379 87.1276 34.5379ZM87.1583 38.0986C92.223 38.0986 95.5381 34.5072 95.5381 29.7801C95.5381 25.0531 92.223 21.4617 87.1583 21.4617C82.1243 21.4617 78.7478 25.0531 78.7478 29.7801C78.7478 34.5072 82.1243 38.0986 87.1583 38.0986Z" fill="#838383"/>
    <path d="M104.305 43.0401C106.638 43.0401 108.694 42.5183 110.075 41.2905C111.334 40.1548 112.163 38.4358 112.163 36.0723V21.8911H107.374V23.5793H107.313C106.392 22.2594 104.98 21.4307 102.893 21.4307C98.9944 21.4307 96.2932 24.6844 96.2932 29.2886C96.2932 34.1078 99.5776 36.7476 103.108 36.7476C105.011 36.7476 106.208 35.9802 107.129 34.9366H107.251V36.502C107.251 38.4051 106.361 39.5102 104.243 39.5102C102.586 39.5102 101.757 38.8042 101.481 37.9754H96.6309C97.122 41.2598 99.9766 43.0401 104.305 43.0401ZM104.274 33.0335C102.402 33.0335 101.174 31.4987 101.174 29.1352C101.174 26.7409 102.402 25.2062 104.274 25.2062C106.361 25.2062 107.466 26.9865 107.466 29.1045C107.466 31.3145 106.453 33.0335 104.274 33.0335Z" fill="#838383"/>
    <path d="M122.009 34.5379C119.829 34.5379 118.694 32.6348 118.694 29.7801C118.694 26.9255 119.829 24.9917 122.009 24.9917C124.188 24.9917 125.354 26.9255 125.354 29.7801C125.354 32.6348 124.188 34.5379 122.009 34.5379ZM122.039 38.0986C127.104 38.0986 130.42 34.5072 130.42 29.7801C130.42 25.0531 127.104 21.4617 122.039 21.4617C117.005 21.4617 113.629 25.0531 113.629 29.7801C113.629 34.5072 117.005 38.0986 122.039 38.0986Z" fill="#838383"/>
    <path d="M131.88 37.6072H136.883V21.8913H131.88V37.6072ZM131.88 19.7119H136.883V15.6602H131.88V19.7119Z" fill="#838383"/>
    <path d="M139.054 42.7946H144.057V35.9802H144.119C145.101 37.3001 146.544 38.0982 148.569 38.0982C152.683 38.0982 155.415 34.8445 155.415 29.7491C155.415 25.022 152.867 21.4307 148.692 21.4307C146.544 21.4307 145.009 22.3822 143.934 23.7942H143.842V21.8911H139.054V42.7946ZM147.28 34.2306C145.132 34.2306 143.904 32.481 143.904 29.9332C143.904 27.3855 145.009 25.4517 147.188 25.4517C149.337 25.4517 150.35 27.2321 150.35 29.9332C150.35 32.6037 149.183 34.2306 147.28 34.2306Z" fill="#838383"/>
    <path d="M163.561 38.0982C167.674 38.0982 170.713 36.3179 170.713 32.88C170.713 28.8589 167.46 28.1529 164.697 27.6925C162.702 27.3241 160.922 27.1707 160.922 26.0656C160.922 25.0834 161.873 24.623 163.101 24.623C164.482 24.623 165.434 25.0527 165.618 26.4647H170.222C169.977 23.3645 167.582 21.4307 163.132 21.4307C159.417 21.4307 156.348 23.1496 156.348 26.4647C156.348 30.1481 159.264 30.8848 161.996 31.3452C164.083 31.7136 165.986 31.867 165.986 33.279C165.986 34.292 165.035 34.8445 163.531 34.8445C161.873 34.8445 160.829 34.0771 160.645 32.5116H155.918C156.072 35.9802 158.957 38.0982 163.561 38.0982Z" fill="#838383"/>
    <path d="M177.509 38.0677C179.688 38.0677 181.069 37.2082 182.205 35.6735H182.297V37.6073H187.085V21.8913H182.082V30.6701C182.082 32.5425 181.038 33.8317 179.32 33.8317C177.723 33.8317 176.956 32.8802 176.956 31.1613V21.8913H171.983V32.2049C171.983 35.7042 173.886 38.0677 177.509 38.0677Z" fill="#838383"/>
    <path d="M189.262 37.6071H194.266V28.7975C194.266 26.9251 195.186 25.6052 196.752 25.6052C198.256 25.6052 198.962 26.5875 198.962 28.2757V37.6071H203.965V28.7975C203.965 26.9251 204.855 25.6052 206.452 25.6052C207.956 25.6052 208.662 26.5875 208.662 28.2757V37.6071H213.665V27.3855C213.665 23.8556 211.885 21.4307 208.324 21.4307C206.298 21.4307 204.61 22.2901 203.382 24.1932H203.321C202.523 22.505 200.957 21.4307 198.901 21.4307C196.629 21.4307 195.125 22.505 194.143 24.1318H194.051V21.8911H189.262V37.6071Z" fill="#838383"/>
    <path fill-rule="evenodd" clip-rule="evenodd" d="M11.656 5.75829C9.82619 7.03772 8.17158 8.55042 6.73524 10.2533C12.6048 9.70833 20.0619 10.5981 28.7195 14.927C37.9646 19.5494 45.4092 19.7057 50.5903 18.7063C50.1202 17.283 49.5283 15.915 48.8273 14.6145C42.8963 15.2401 35.2929 14.4121 26.4317 9.98159C20.8047 7.16811 15.8446 6.00915 11.656 5.75829ZM45.3627 9.68316C40.679 4.45007 33.8724 1.15674 26.2966 1.15674C24.0718 1.15674 21.9132 1.44081 19.8553 1.97461C22.6425 2.73509 25.6033 3.84767 28.7195 5.40581C35.2072 8.6496 40.8083 9.69405 45.3627 9.68316ZM51.6981 23.7025C45.4388 24.9385 36.7954 24.6846 26.4317 19.5027C16.7427 14.6583 9.03113 14.7193 3.83017 15.8751C3.56171 15.9347 3.29957 15.9973 3.04377 16.0626C2.36283 17.5435 1.81929 19.1008 1.42929 20.7179C1.84583 20.6066 2.27626 20.5008 2.72035 20.4021C9.03003 19 17.9451 19.0609 28.7195 24.4481C38.4086 29.2926 46.1201 29.2316 51.3211 28.0758C51.4993 28.0363 51.6749 27.9953 51.8476 27.9531C51.8665 27.5499 51.876 27.1441 51.876 26.7361C51.876 25.7097 51.8156 24.6974 51.6981 23.7025ZM51.0124 33.3513C44.8139 34.4349 36.4222 34.019 26.4317 29.0239C16.7427 24.1794 9.03113 24.2404 3.83017 25.3962C2.67571 25.6527 1.63717 25.9651 0.721033 26.295C0.718535 26.4417 0.717285 26.5887 0.717285 26.7361C0.717285 40.8632 12.1695 52.3154 26.2966 52.3154C38.1361 52.3154 48.097 44.2719 51.0124 33.3513Z" fill="#838383"/>
    </g>
    <defs>
    <clipPath id="clip0_102_3511">
    <rect width="213.588" height="52.4377" fill="white" transform="translate(0.587646 0.781128)"/>
    </clipPath>
    </defs>
    </svg>
    