<svg width="80" height="80" viewBox="0 0 80 80" fill="none" xmlns="http://www.w3.org/2000/svg">
<circle cx="40" cy="40" r="40" fill="#007AFF"/>
<g clip-path="url(#clip0_102_3529)">
<path d="M39.5986 24.168C38.9126 24.168 38.3564 24.7241 38.3564 25.4102C38.3564 26.0962 38.9126 26.6523 39.5986 26.6523C43.7089 26.6523 47.053 29.9958 47.053 34.1055C47.053 34.7915 47.6092 35.3477 48.2952 35.3477C48.9812 35.3477 49.5374 34.7915 49.5374 34.1055C49.5374 28.6259 45.0789 24.168 39.5986 24.168Z" fill="white"/>
<path d="M36.3978 19.5339C30.7856 20.7066 26.2351 25.2136 25.0377 30.8607C24.0266 35.6292 25.2726 40.4166 28.456 43.9953C30.0121 45.7446 30.9045 48.0536 30.9045 50.3369V52.8212C30.9045 54.4742 31.9866 55.8784 33.4794 56.3648C33.9703 59.2653 36.4878 61.5993 39.5998 61.5993C42.711 61.5993 45.2291 59.266 45.7202 56.3648C47.213 55.8784 48.2951 54.4742 48.2951 52.8212V50.3368C48.2951 48.0491 49.1905 45.7678 50.8161 43.9131C53.1956 41.1985 54.506 37.7154 54.506 34.1056C54.506 24.701 45.8978 17.5492 36.3978 19.5339ZM39.5998 59.115C38.003 59.115 36.603 58.0162 36.086 56.5395H43.1135C42.5966 58.0162 41.1966 59.115 39.5998 59.115ZM45.8107 52.8212C45.8107 53.5062 45.2535 54.0634 44.5685 54.0634H34.631C33.9461 54.0634 33.3889 53.5062 33.3889 52.8212V51.5791H45.8107V52.8212ZM48.9478 42.2756C47.2154 44.2521 46.1495 46.6355 45.879 49.0947H33.3208C33.0506 46.6342 31.9875 44.2274 30.3124 42.3441C27.6592 39.3616 26.6225 35.3638 27.4681 31.376C28.4551 26.7208 32.2479 22.9392 36.9061 21.9659C44.8581 20.3041 52.0217 26.2759 52.0217 34.1056C52.0217 37.1127 50.93 40.0142 48.9478 42.2756Z" fill="white"/>
<path d="M22.1265 34.1055H19.6421C18.9561 34.1055 18.3999 34.6616 18.3999 35.3477C18.3999 36.0337 18.9561 36.5898 19.6421 36.5898H22.1265C22.8125 36.5898 23.3687 36.0337 23.3687 35.3477C23.3687 34.6616 22.8125 34.1055 22.1265 34.1055Z" fill="white"/>
<path d="M22.6409 27.8943L20.8842 26.1376C20.3992 25.6525 19.6126 25.6525 19.1275 26.1376C18.6424 26.6228 18.6424 27.4092 19.1275 27.8943L20.8842 29.651C21.3692 30.1362 22.1558 30.1362 22.6409 29.651C23.126 29.1659 23.126 28.3795 22.6409 27.8943Z" fill="white"/>
<path d="M22.6409 41.0439C22.1558 40.5588 21.3692 40.5588 20.8842 41.0439L19.1275 42.8006C18.6424 43.2857 18.6424 44.0722 19.1275 44.5573C19.6125 45.0424 20.3991 45.0425 20.8842 44.5573L22.6409 42.8006C23.126 42.3155 23.126 41.529 22.6409 41.0439Z" fill="white"/>
<path d="M59.5576 34.1055H57.0732C56.3872 34.1055 55.8311 34.6616 55.8311 35.3477C55.8311 36.0337 56.3872 36.5898 57.0732 36.5898H59.5576C60.2436 36.5898 60.7998 36.0337 60.7998 35.3477C60.7998 34.6616 60.2436 34.1055 59.5576 34.1055Z" fill="white"/>
<path d="M60.0721 26.1376C59.587 25.6525 58.8005 25.6525 58.3154 26.1376L56.5587 27.8943C56.0735 28.3795 56.0735 29.1659 56.5587 29.651C57.0437 30.1361 57.8302 30.1362 58.3154 29.651L60.0721 27.8943C60.5572 27.4092 60.5572 26.6228 60.0721 26.1376Z" fill="white"/>
<path d="M60.0721 42.8006L58.3154 41.0439C57.8303 40.5588 57.0438 40.5588 56.5587 41.0439C56.0735 41.529 56.0735 42.3155 56.5587 42.8006L58.3154 44.5573C58.8004 45.0423 59.587 45.0424 60.0721 44.5573C60.5572 44.0722 60.5572 43.2857 60.0721 42.8006Z" fill="white"/>
</g>
<defs>
<clipPath id="clip0_102_3529">
<rect width="42.4" height="42.4" fill="white" transform="translate(18.3999 19.2)"/>
</clipPath>
</defs>
</svg>
