<svg width="104" height="40" viewBox="0 0 104 40" fill="none" xmlns="http://www.w3.org/2000/svg">
<path d="M16.4992 2.5H37.5808L22.0816 25.4729H1L16.4992 2.5Z" fill="#007AFF"/>
<path d="M17.4226 27.602L11.4194 36.5H33.501L49.0002 13.5271H32.7026L23.2066 27.602H17.4226Z" fill="#312ECB"/>
<path d="M54.6971 33.363C54.5201 33.363 54.3541 33.2927 54.1992 33.1519C54.0664 32.9877 54 32.8118 54 32.6241C54 32.5068 54.0111 32.4012 54.0332 32.3074L61.8343 9.71683C61.9007 9.45879 62.0334 9.23593 62.2326 9.04826C62.4539 8.83714 62.7527 8.73157 63.1289 8.73157H68.0419C68.4182 8.73157 68.7059 8.83714 68.905 9.04826C69.1263 9.23593 69.2702 9.45879 69.3366 9.71683L77.1045 32.3074C77.1487 32.4012 77.1708 32.5068 77.1708 32.6241C77.1708 32.8118 77.0934 32.9877 76.9385 33.1519C76.8057 33.2927 76.6397 33.363 76.4405 33.363H72.3574C72.0255 33.363 71.771 33.2809 71.5939 33.1167C71.439 32.9291 71.3394 32.7649 71.2951 32.6241L70.0005 29.0349H61.1372L59.8757 32.6241C59.8314 32.7649 59.7319 32.9291 59.5769 33.1167C59.422 33.2809 59.1565 33.363 58.7802 33.363H54.6971ZM62.4982 23.9679H68.6727L65.5854 14.6783L62.4982 23.9679Z" fill="black"/>
<path d="M80.916 33.363C80.6726 33.363 80.4734 33.2809 80.3185 33.1167C80.1636 32.9291 80.0861 32.7179 80.0861 32.4834V15.9451C80.0861 15.687 80.1636 15.4759 80.3185 15.3117C80.4734 15.1475 80.6726 15.0654 80.916 15.0654H84.8332C85.0766 15.0654 85.2758 15.1475 85.4307 15.3117C85.5856 15.4759 85.6631 15.687 85.6631 15.9451V32.4834C85.6631 32.7179 85.5856 32.9291 85.4307 33.1167C85.2758 33.2809 85.0766 33.363 84.8332 33.363H80.916ZM80.8828 12.4263C80.6394 12.4263 80.4402 12.3442 80.2853 12.18C80.1304 12.0158 80.0529 11.8046 80.0529 11.5466V8.37969C80.0529 8.14511 80.1304 7.94571 80.2853 7.7815C80.4402 7.59383 80.6394 7.5 80.8828 7.5H84.8664C85.0877 7.5 85.2758 7.59383 85.4307 7.7815C85.6077 7.94571 85.6963 8.14511 85.6963 8.37969V11.5466C85.6963 11.8046 85.6077 12.0158 85.4307 12.18C85.2758 12.3442 85.0877 12.4263 84.8664 12.4263H80.8828Z" fill="black"/>
<path d="M92.1158 33.363C91.8724 33.363 91.6732 33.2809 91.5183 33.1167C91.3634 32.9291 91.2859 32.7179 91.2859 32.4834V15.9451C91.2859 15.7105 91.3634 15.5111 91.5183 15.3469C91.6732 15.1592 91.8724 15.0654 92.1158 15.0654H95.9334C96.1768 15.0654 96.376 15.1592 96.5309 15.3469C96.7079 15.5111 96.7965 15.7105 96.7965 15.9451V17.3526C97.3719 16.6254 98.069 16.0624 98.8878 15.6636C99.7288 15.2648 100.669 15.0654 101.709 15.0654H103.17C103.414 15.0654 103.613 15.1475 103.768 15.3117C103.923 15.4759 104 15.687 104 15.9451V19.5694C104 19.804 103.923 20.0151 103.768 20.2028C103.613 20.367 103.414 20.4491 103.17 20.4491H99.9501C99.0427 20.4491 98.3345 20.7189 97.8255 21.2584C97.3387 21.7745 97.0952 22.5135 97.0952 23.4753V32.4834C97.0952 32.7179 97.0067 32.9291 96.8297 33.1167C96.6747 33.2809 96.4756 33.363 96.2321 33.363H92.1158Z" fill="black"/>
</svg>
