<svg width="28" height="32" viewBox="0 0 28 32" fill="none" xmlns="http://www.w3.org/2000/svg">
<path d="M22.614 21.5246C21.0808 21.5246 19.6994 22.1867 18.7407 23.2399L10.1174 17.8991C10.3476 17.3098 10.4753 16.6696 10.4753 16C10.4753 15.33 10.3476 14.6899 10.1174 14.1008L18.7407 8.75975C19.6994 9.81297 21.0808 10.4753 22.614 10.4753C25.5021 10.4753 27.8518 8.12572 27.8518 5.23754C27.8518 2.34936 25.5021 0 22.614 0C19.7258 0 17.3762 2.3496 17.3762 5.23778C17.3762 5.90746 17.5041 6.54759 17.7341 7.13695L9.11107 12.4778C8.15233 11.4245 6.77098 10.7622 5.23778 10.7622C2.3496 10.7622 0 13.112 0 16C0 18.8881 2.3496 21.2378 5.23778 21.2378C6.77098 21.2378 8.15233 20.5756 9.11107 19.5222L17.7341 24.863C17.5041 25.4523 17.3762 26.0925 17.3762 26.7624C17.3762 29.6503 19.7258 31.9999 22.614 31.9999C25.5021 31.9999 27.8518 29.6503 27.8518 26.7624C27.8518 23.8742 25.5021 21.5246 22.614 21.5246V21.5246ZM19.2861 5.23778C19.2861 3.40283 20.779 1.90991 22.614 1.90991C24.4489 1.90991 25.9418 3.40283 25.9418 5.23778C25.9418 7.07274 24.4489 8.56566 22.614 8.56566C20.779 8.56566 19.2861 7.07274 19.2861 5.23778ZM5.23778 19.3278C3.40258 19.3278 1.90966 17.8349 1.90966 16C1.90966 14.165 3.40258 12.6721 5.23778 12.6721C7.07274 12.6721 8.56541 14.165 8.56541 16C8.56541 17.8349 7.07274 19.3278 5.23778 19.3278ZM19.2861 26.7622C19.2861 24.9272 20.779 23.4343 22.614 23.4343C24.4489 23.4343 25.9418 24.9272 25.9418 26.7622C25.9418 28.5971 24.4489 30.09 22.614 30.09C20.779 30.09 19.2861 28.5971 19.2861 26.7622Z" fill="white"/>
</svg>
