<svg width="114" height="19" viewBox="0 0 114 19" fill="none" xmlns="http://www.w3.org/2000/svg">
<g clip-path="url(#clip0_102_3851)">
<path d="M9.06936 0.817135C9.40472 0.0205896 10.5469 0.0205906 10.8823 0.817137L12.8616 5.51849C13.003 5.8543 13.3227 6.08374 13.6896 6.1128L18.8272 6.5197C19.6977 6.58865 20.0506 7.66181 19.3874 8.22304L15.4732 11.5355C15.1936 11.7721 15.0714 12.1434 15.1569 12.4971L16.3527 17.45C16.5553 18.2891 15.6313 18.9524 14.8861 18.5028L10.4876 15.8486C10.1734 15.659 9.77826 15.659 9.46409 15.8486L5.06557 18.5028C4.32032 18.9524 3.39627 18.2891 3.59888 17.45L4.79477 12.4971C4.88019 12.1434 4.75809 11.7721 4.47851 11.5355L0.564177 8.22304C-0.0990225 7.66181 0.253939 6.58865 1.1244 6.5197L6.26202 6.1128C6.62899 6.08374 6.94866 5.8543 7.09003 5.51849L9.06936 0.817135Z" fill="#FBAF5B"/>
<path d="M32.4839 0.817135C32.8193 0.0205896 33.9615 0.0205906 34.2968 0.817137L36.2761 5.51849C36.4176 5.8543 36.7373 6.08374 37.1042 6.1128L42.2418 6.5197C43.1122 6.58865 43.4652 7.66181 42.802 8.22304L38.8877 11.5355C38.6082 11.7721 38.486 12.1434 38.5714 12.4971L39.7673 17.45C39.9699 18.2891 39.0459 18.9524 38.3006 18.5028L33.9021 15.8486C33.5879 15.659 33.1928 15.659 32.8786 15.8486L28.4801 18.5028C27.7349 18.9524 26.8108 18.2891 27.0134 17.45L28.2093 12.4971C28.2947 12.1434 28.1726 11.7721 27.8931 11.5355L23.9787 8.22304C23.3155 7.66181 23.6685 6.58865 24.539 6.5197L29.6766 6.1128C30.0435 6.08374 30.3632 5.8543 30.5046 5.51849L32.4839 0.817135Z" fill="#FBAF5B"/>
<path d="M55.8985 0.817135C56.2338 0.0205896 57.376 0.0205906 57.7114 0.817137L59.6907 5.51849C59.8321 5.8543 60.1518 6.08374 60.5187 6.1128L65.6563 6.5197C66.5268 6.58865 66.8797 7.66181 66.2165 8.22304L62.3023 11.5355C62.0227 11.7721 61.9005 12.1434 61.986 12.4971L63.1818 17.45C63.3844 18.2891 62.4604 18.9524 61.7152 18.5028L57.3167 15.8486C57.0025 15.659 56.6074 15.659 56.2932 15.8486L51.8947 18.5028C51.1494 18.9524 50.2254 18.2891 50.428 17.45L51.6239 12.4971C51.7093 12.1434 51.5872 11.7721 51.3076 11.5355L47.3933 8.22304C46.7301 7.66181 47.083 6.58865 47.9535 6.5197L53.0911 6.1128C53.4581 6.08374 53.7778 5.8543 53.9191 5.51849L55.8985 0.817135Z" fill="#FBAF5B"/>
<path d="M79.313 0.817135C79.6484 0.0205896 80.7906 0.0205906 81.1259 0.817137L83.1052 5.51849C83.2467 5.8543 83.5664 6.08374 83.9333 6.1128L89.0709 6.5197C89.9413 6.58865 90.2943 7.66181 89.6311 8.22304L85.7168 11.5355C85.4373 11.7721 85.3151 12.1434 85.4005 12.4971L86.5964 17.45C86.799 18.2891 85.875 18.9524 85.1297 18.5028L80.7312 15.8486C80.417 15.659 80.0219 15.659 79.7077 15.8486L75.3092 18.5028C74.564 18.9524 73.6399 18.2891 73.8425 17.45L75.0384 12.4971C75.1238 12.1434 75.0017 11.7721 74.7222 11.5355L70.8078 8.22304C70.1446 7.66181 70.4976 6.58865 71.3681 6.5197L76.5057 6.1128C76.8726 6.08374 77.1923 5.8543 77.3337 5.51849L79.313 0.817135Z" fill="#FBAF5B"/>
<path d="M102.728 0.817135C103.063 0.0205896 104.205 0.0205906 104.54 0.817137L106.52 5.51849C106.661 5.8543 106.981 6.08374 107.348 6.1128L112.485 6.5197C113.356 6.58865 113.709 7.66181 113.046 8.22304L109.131 11.5355C108.852 11.7721 108.73 12.1434 108.815 12.4971L110.011 17.45C110.214 18.2891 109.29 18.9524 108.544 18.5028L104.146 15.8486C103.832 15.659 103.436 15.659 103.122 15.8486L98.7238 18.5028C97.9785 18.9524 97.0545 18.2891 97.2571 17.45L98.453 12.4971C98.5384 12.1434 98.4163 11.7721 98.1367 11.5355L94.2224 8.22304C93.5592 7.66181 93.9121 6.58865 94.7826 6.5197L99.9202 6.1128C100.287 6.08374 100.607 5.8543 100.748 5.51849L102.728 0.817135Z" fill="#FBAF5B"/>
</g>
<defs>
<clipPath id="clip0_102_3851">
<rect width="113.17" height="18.4282" fill="white" transform="translate(0.219727 0.219727)"/>
</clipPath>
</defs>
</svg>
